<?xml version="1.0" encoding="UTF-8" standalone="no"?>
<!DOCTYPE svg PUBLIC "-//W3C//DTD SVG 1.1//EN" "http://www.w3.org/Graphics/SVG/1.1/DTD/svg11.dtd">
<svg width="270px" height="50px" version="1.1" xmlns="http://www.w3.org/2000/svg" xmlns:xlink="http://www.w3.org/1999/xlink" xml:space="preserve" xmlns:serif="http://www.serif.com/" style="fill-rule:evenodd;clip-rule:evenodd;stroke-linejoin:round;stroke-miterlimit:1.41421;">
    <path d="M147.611,41.323L266.445,41.323L261.399,47.722L142.565,47.722" style="fill:rgb(204,0,0);fill-rule:nonzero;"/>
    <path d="M248.859,21.941L228.652,21.941L228.652,30.591L248.859,30.591C250.539,30.591 251.673,30.366 252.261,29.915C252.851,29.465 253.145,28.673 253.145,27.537L253.145,24.964C253.145,23.828 252.851,23.041 252.261,22.601C251.673,22.162 250.539,21.941 248.859,21.941M248.859,8.246L228.652,8.246L228.652,16.347L248.859,16.347C250.395,16.347 251.458,16.166 252.047,15.801C252.634,15.437 252.929,14.805 252.929,13.904L252.929,10.689C252.929,9.81 252.634,9.183 252.047,8.808C251.458,8.434 250.395,8.246 248.859,8.246M219.934,36.698L219.934,2.715L252.568,2.715C255.57,2.715 257.743,3.241 259.088,4.291C260.433,5.341 261.106,7.013 261.106,9.307L261.106,13.454C261.106,15.083 260.541,16.385 259.413,17.36C258.283,18.336 256.662,18.941 254.55,19.176C256.734,19.434 258.422,20.131 259.609,21.266C260.799,22.404 261.393,23.883 261.393,25.703L261.393,30.044C261.393,32.294 260.469,33.966 258.618,35.058C256.769,36.152 253.961,36.698 250.191,36.698L219.934,36.698Z" style="fill:rgb(255,255,255);fill-rule:nonzero;"/>
    <path d="M180.768,23.131L197.445,23.131L189.234,9.306L180.768,23.131ZM163.73,36.699L185.27,2.715L193.807,2.715L215.635,36.699L205.694,36.699L201.12,29.272L176.986,29.272L172.556,36.699L163.73,36.699Z" style="fill:rgb(255,255,255);fill-rule:nonzero;"/>
    <path d="M151.987,8.814L128.106,8.814L128.106,30.323L151.984,30.317L151.973,24.004L160.847,24.004L160.847,28.683C160.847,31.79 160.194,33.906 158.884,35.031C157.576,36.156 155.085,36.718 151.411,36.718L128.682,36.718C124.983,36.718 122.487,36.156 121.189,35.031C119.893,33.906 119.244,31.79 119.244,28.683L119.244,10.775C119.244,7.688 119.893,5.577 121.189,4.441C122.487,3.305 124.983,2.737 128.682,2.737L151.411,2.737C155.085,2.737 157.576,3.305 158.884,4.441C160.194,5.577 160.847,7.688 160.847,10.775L160.847,15.452L151.973,15.452L151.987,8.814Z" style="fill:rgb(255,255,255);fill-rule:nonzero;"/>
    <path d="M142.565,47.722L147.611,41.323M137.538,47.722L105.377,47.722L105.377,13.74L114.238,13.74L114.238,41.324L142.565,41.323L137.538,47.722Z" style="fill:rgb(204,0,0);fill-rule:nonzero;"/>
    <path d="M60.184,41.324L89.396,41.324L89.396,19.816L60.184,19.816L60.184,41.324ZM51.323,21.777C51.323,18.691 51.971,16.58 53.268,15.444C54.565,14.308 57.062,13.74 60.76,13.74L88.784,13.74C92.482,13.74 94.979,14.308 96.276,15.444C97.572,16.58 98.221,18.691 98.221,21.777L98.221,39.684C98.221,42.792 97.572,44.909 96.276,46.034C94.979,47.159 92.482,47.722 88.784,47.722L60.76,47.722C57.062,47.722 54.565,47.159 53.268,46.034C51.971,44.909 51.323,42.792 51.323,39.684L51.323,21.777Z" style="fill:rgb(204,0,0);fill-rule:nonzero;"/>
    <path d="M32.012,19.623L12.093,19.623L12.093,28.626L32.012,28.626C33.548,28.626 34.6,28.428 35.164,28.031C35.728,27.634 36.01,26.932 36.01,25.925L36.01,22.291C36.01,21.306 35.728,20.615 35.164,20.218C34.6,19.821 33.548,19.623 32.012,19.623M3.376,47.721L3.376,13.74L35.938,13.74C38.964,13.74 41.155,14.259 42.512,15.299C43.868,16.338 44.547,18.016 44.547,20.331L44.547,27.917C44.547,30.211 43.868,31.879 42.512,32.916C41.155,33.956 38.964,34.476 35.938,34.476L12.093,34.476L12.093,47.721L3.376,47.721Z" style="fill:rgb(204,0,0);fill-rule:nonzero;"/>
</svg>
